<?xml version="1.0" standalone="no"?>
<!DOCTYPE svg PUBLIC "-//W3C//DTD SVG 1.1//EN" "http://www.w3.org/Graphics/SVG/1.1/DTD/svg11.dtd" >
<svg xmlns="http://www.w3.org/2000/svg">
<metadata>Generated by IcoMoon</metadata>
<defs>
<font id="padf" horiz-adv-x="1024">
<font-face units-per-em="1024" ascent="960" descent="-64" />
<missing-glyph horiz-adv-x="1024" />
<glyph unicode="&#x20;" horiz-adv-x="512" d="" />
<glyph unicode="&#xe900;" glyph-name="cancel" d="M463.056 451.424l-453.248-453.248c-12.592-12.592-12.592-32.992 0-45.584 6.288-6.304 14.544-9.44 22.784-9.44 8.256 0 16.496 3.136 22.784 9.44l456.656 456.656 456.656-456.656c6.304-6.304 14.544-9.44 22.784-9.44s16.496 3.136 22.784 9.44c12.592 12.592 12.592 32.992 0 45.584l-453.232 453.248 453.536 453.568c12.592 12.592 12.592 32.992 0 45.584-12.592 12.576-32.992 12.576-45.568 0l-456.944-456.976-456.992 456.96c-12.592 12.576-32.976 12.576-45.568 0-12.592-12.592-12.592-32.992 0-45.584l453.568-453.552z" />
<glyph unicode="&#xe901;" glyph-name="menu" d="M36.032 795.664h941.936c17.984 0 32.544 14.56 32.544 32.544 0 17.968-14.56 32.544-32.544 32.544h-941.936c-17.984 0-32.544-14.576-32.544-32.544s14.56-32.544 32.544-32.544zM977.968 479.76h-941.936c-17.984 0-32.544-14.592-32.544-32.56 0-17.952 14.56-32.544 32.544-32.544h941.936c17.984 0 32.544 14.592 32.544 32.544 0 17.968-14.56 32.56-32.544 32.56zM977.968 97.984h-941.936c-17.984 0-32.544-14.56-32.544-32.544 0-17.968 14.56-32.544 32.544-32.544h941.936c17.984 0 32.544 14.576 32.544 32.544 0 17.984-14.56 32.544-32.544 32.544z" />
<glyph unicode="&#xe902;" glyph-name="online" d="M1000.809 152.345l-266.34 266.34 190.042 109.729c14.858 8.634 23.492 24.998 22.287 42.064s-12.147 32.025-28.11 38.35l-847.31 338.020c-16.565 6.626-35.539 2.711-48.188-9.939s-16.565-31.624-9.939-48.188l337.92-847.41c6.325-15.962 21.283-26.905 38.35-28.11s33.431 7.429 41.964 22.287l109.729 190.042 266.34-266.441c8.433-8.433 19.777-13.151 31.624-13.151s23.291 4.718 31.624 13.151l130.008 130.008c17.569 17.468 17.569 45.779 0 63.247zM839.278 54.061l-275.978 275.878c-8.433 8.533-19.878 13.151-31.624 13.151-1.907 0-3.915-0.1-5.823-0.402-13.854-1.807-26.002-9.939-32.929-21.986l-92.762-160.627-265.236 664.998 664.897-265.236-160.627-92.762c-12.047-6.927-20.179-19.075-21.986-32.929-1.807-13.754 2.911-27.608 12.75-37.446l275.978-275.978-66.66-66.66z" />
<glyph unicode="&#xe903;" glyph-name="presencial" horiz-adv-x="1193" d="M787.968 344.986h-51.2c52.531 25.702 98.509 64.205 131.379 115.302 33.69 52.326 51.405 113.050 51.405 175.514 0 178.79-145.818 324.198-325.12 324.198s-325.222-145.408-325.222-324.198c0-128 74.957-237.773 182.682-290.816h-47.206c-223.13 0-404.685-156.774-404.685-379.904 0-30.208 23.757-29.082 53.965-29.082h1084.723c30.208 0 53.965-1.126 53.965 29.082 0 223.13-181.555 379.904-404.685 379.904zM377.242 635.802c0 119.808 97.485 217.19 217.19 217.19s217.19-97.485 217.19-217.19-97.485-217.19-217.19-217.19-217.19 97.485-217.19 217.19zM113.050 38.195c25.702 102.195 148.582 204.493 291.635 204.493h383.283c143.155 0 266.035-102.195 291.635-204.493h-966.554z" />
<glyph unicode="&#xe904;" glyph-name="pdf" horiz-adv-x="965" d="M959.985 682.876l-261.032 271.097c-3.716 3.833-8.836 6.027-14.19 6.027h-389.061c-43.535 0-78.965-35.401-78.965-78.877v-275.573h-157.667c-32.563 0-59.070-26.478-59.070-59.041v-295.497c0-32.534 26.507-59.012 59.070-59.012h157.667v-177.24c0-43.418 35.43-78.76 78.965-78.76h590.819c43.535 0 78.965 35.313 78.965 78.702v654.541c0 5.091-1.989 9.977-5.5 13.634zM689.62 906.84l214.279-222.53h-214.279v222.53zM59.070 231.38c-10.854 0-19.661 8.806-19.661 19.632v295.497c0 10.825 8.836 19.632 19.661 19.632h532.070c10.854 0 19.661-8.806 19.661-19.632v-295.497c0-10.825-8.836-19.632-19.661-19.632h-532.070zM926.076 14.702c0-21.68-17.73-39.322-39.556-39.322h-590.819c-21.797 0-39.556 17.642-39.556 39.351v177.269h334.994c32.563 0 59.070 26.478 59.070 59.012v295.497c0 32.534-26.507 59.012-59.070 59.012h-334.994v275.602c0 21.797 17.73 39.497 39.556 39.497h354.509v-256c0-10.884 8.836-19.69 19.69-19.69h256.146l0.029-630.228zM235.549 460.2c-6.554 8.514-14.658 14.014-24.371 16.56-6.29 1.697-19.836 2.545-40.609 2.545h-54.857v-169.165h34.172v63.81h22.294c15.477 0 27.297 0.819 35.43 2.428 5.998 1.317 11.908 3.979 17.73 8.016s10.591 9.596 14.365 16.677 5.647 15.799 5.647 26.185c0.029 13.488-3.248 24.459-9.801 32.944zM206.292 413.652c-2.575-3.774-6.144-6.524-10.679-8.309-4.535-1.755-13.546-2.662-27.004-2.662h-18.725v48.011h16.501c12.317 0 20.509-0.38 24.576-1.141 5.53-0.995 10.123-3.511 13.751-7.49 3.628-4.008 5.413-9.070 5.413-15.243 0.029-5.003-1.258-9.392-3.833-13.166zM409.659 433.108c-3.686 10.796-9.070 19.953-16.15 27.414s-15.594 12.668-25.512 15.565c-7.402 2.165-18.139 3.218-32.212 3.218h-62.464v-169.165h64.307c12.61 0 22.704 1.2 30.252 3.569 10.094 3.218 18.081 7.724 24.020 13.488 7.841 7.607 13.897 17.584 18.139 29.872 3.452 10.064 5.208 22.089 5.208 35.986-0.029 15.916-1.902 29.228-5.588 40.053zM376.422 363.622c-2.311-7.578-5.296-13.019-8.953-16.325s-8.251-5.647-13.809-7.051c-4.242-1.083-11.118-1.609-20.656-1.609h-25.512v112.026h15.36c13.926 0 23.289-0.527 28.058-1.609 6.378-1.375 11.674-4.037 15.828-7.958s7.402-9.392 9.684-16.384c2.311-6.992 3.452-17.028 3.452-30.106s-1.141-23.406-3.452-30.983zM560.45 450.692v28.613h-116.034v-169.165h34.172v71.885h70.656v28.643h-70.656v40.024z" />
<glyph unicode="&#xe905;" glyph-name="phone" d="M843.008 569.173c-10.24 52.309-35.499 99.84-73.216 137.557-37.632 37.632-85.163 62.976-137.472 73.216-22.443 4.352-44.203-10.24-48.64-32.768-4.352-22.443 10.24-44.203 32.768-48.64 73.813-14.336 130.816-71.339 145.237-145.237 3.84-19.797 21.163-33.536 40.619-33.536 2.645 0 5.291 0.256 8.021 0.768 22.443 4.437 37.035 26.197 32.683 48.64zM1023.744 566.357c-11.264 100.352-56.832 194.987-128.341 266.325-71.424 71.339-166.059 116.821-266.496 128-22.784 2.56-43.264-13.824-45.739-36.608-2.56-22.784 13.824-43.264 36.608-45.739 170.24-18.944 302.421-150.955 321.621-321.195 2.389-21.163 20.309-36.779 41.131-36.779 1.536 0 3.072 0.085 4.693 0.256 22.699 2.475 39.083 22.955 36.523 45.739zM865.792 334.677c-0.085 0-0.256 0-0.341 0.085-40.107 5.205-79.701 15.104-117.504 29.184-47.872 18.005-102.4 6.4-138.752-29.611l-0.085-0.085-34.475-34.389c-85.419 53.931-157.781 126.293-211.712 211.712l34.389 34.389c0 0 0.085 0.085 0.171 0.171 36.011 36.352 47.616 90.795 29.611 138.667-14.165 37.888-23.979 77.397-29.269 117.504l-0.085 0.427c-9.216 65.109-65.707 113.664-131.328 113.152h-134.997c-3.925 0-7.851-0.171-11.691-0.512-72.277-6.571-125.696-70.656-119.211-142.933v-0.427c15.445-145.152 65.536-286.464 144.725-408.832 71.936-113.152 169.728-210.944 282.795-282.795 121.771-78.933 262.4-128.939 406.699-144.64 0.256 0 0.512-0.085 0.768-0.085 3.925-0.341 7.936-0.512 11.861-0.512 0.171 0 0.341 0 0.512 0 72.533 0.256 131.328 59.563 130.987 131.925v134.656c1.451 66.56-47.104 123.648-113.067 132.949zM896.085 202.155v-135.339c0.085-26.88-21.675-48.725-48.469-48.896-1.451 0-2.816 0.085-4.267 0.171-131.413 14.336-259.413 59.904-370.347 131.84-0.085 0.171-0.256 0.171-0.341 0.256-102.997 65.451-192.085 154.539-257.536 257.621 0 0-0.171 0.171-0.171 0.341-72.192 111.445-117.76 240.128-131.84 372.139-2.304 26.539 17.408 50.091 44.032 52.48 1.451 0.171 2.901 0.171 4.267 0.171h135.168c0.256 0 0.597 0 0.853 0 24.064 0 44.715-17.835 48.213-41.728 6.144-46.165 17.493-91.733 33.792-135.509 6.656-17.664 2.389-37.803-10.837-51.285l-57.173-57.173c-13.141-13.141-15.872-33.451-6.656-49.749 67.755-119.211 166.656-218.112 285.867-285.867 16.213-9.216 36.608-6.485 49.749 6.741l57.088 57.088c13.483 13.227 33.621 17.493 51.371 10.837 43.691-16.299 89.259-27.648 135.424-33.792 24.405-3.499 42.325-24.747 41.728-49.408 0.085-0.256 0.085-0.597 0.085-0.939z" />
<glyph unicode="&#xe906;" glyph-name="web" d="M874.069 810.069c-96.768 96.683-225.28 149.931-362.069 149.931s-265.301-53.248-362.069-149.931-149.931-225.28-149.931-362.069 53.248-265.301 149.931-362.069c96.768-96.683 225.28-149.931 362.069-149.931s265.301 53.248 362.069 149.931 149.931 225.28 149.931 362.069-53.248 265.301-149.931 362.069zM512 18.688c-236.715 0-429.312 192.597-429.312 429.312s192.597 429.312 429.312 429.312 429.312-192.597 429.312-429.312-192.597-429.312-429.312-429.312zM982.613 467.883h-941.227c-22.869 0-41.387-22.528-41.387-45.397s18.517-45.397 41.387-45.397h941.312c22.784 0 41.301 22.528 41.301 45.397s-18.517 45.397-41.387 45.397zM545.877 946.517c-7.851 8.619-20.651 13.483-32.256 13.483s-17.408-4.864-25.173-13.483c-124.587-136.277-193.792-313.088-193.792-497.664 0-0.597 0-1.109 0-1.707 0-184.576 68.437-361.301 192.939-497.664 7.851-8.619 15.872-13.483 27.477-13.483s24.491 4.864 32.341 13.483c124.501 136.363 200.875 313.088 200.875 497.664 0 0.597 0 1.109 0 1.707-0.085 184.576-77.909 361.387-202.411 497.664zM512 41.131c-91.819 115.627-143.616 258.389-146.859 406.869 3.243 148.48 55.040 291.243 146.859 406.869 91.819-115.627 143.616-258.389 146.859-406.869-3.243-148.48-55.040-291.243-146.859-406.869z" />
<glyph unicode="&#xe907;" glyph-name="crear" d="M940.737 854.756h-45.375c-7.418 0-14.586-1.001-21.436-2.844-12.72 30.083-42.257 51.2-76.572 51.2h-45.375c-18.318 0-35.248-6.030-48.993-16.202-13.79 10.172-30.72 16.202-49.015 16.202h-45.375c-18.318 0-35.248-6.030-49.015-16.202-13.767 10.172-30.697 16.202-49.015 16.202h-45.375c-45.898 0-83.24-37.774-83.24-84.218v-24.485h-42.325c-37.683 45.102-93.321 71.521-152.212 71.521-81.829 0-154.419-49.653-184.912-126.498-4.233-10.672-2.958-22.778 3.413-32.313s16.998-15.246 28.376-15.246h131.755v-55h-131.755c-11.378 0-22.005-5.712-28.376-15.246s-7.646-21.641-3.413-32.313c30.515-76.846 103.083-126.498 184.934-126.498 52.292 0 101.968 20.867 138.832 57.094 3.573-26.647 19.479-49.38 41.734-62.054l12.447-56.775c16.293-74.32 73.978-130.412 144.93-144.156v-229.399c0-19.137 15.337-34.634 34.247-34.634s34.247 15.519 34.247 34.634v260.779c0 19.137-15.337 34.634-34.247 34.634-1.434 0-2.844 0.023-4.278 0.068-52.019 1.866-96.438 40.118-108.043 93.070l-6.781 30.97h134.303c29.127 0 55.546 11.947 74.706 31.266 11.81-11.31 19.228-27.261 19.228-44.965v-96.688c0-19.137 15.337-34.634 34.247-34.634s34.247 15.519 34.247 34.634v96.688c0 45.193-22.71 85.129-57.185 108.749 0.455 3.982 0.705 8.010 0.705 12.106 0 0.66-0.046 1.297-0.046 1.957 8.101 4.346 15.61 9.694 22.3 15.929 18.887-17.59 44.055-28.353 71.68-28.353 17.362 0 33.746 4.278 48.219 11.787 17.249-35.59 53.43-60.143 95.164-60.143 13.175 0 25.805 2.458 37.456 6.94v-104.38c0-41.347-33.269-75.002-74.138-75.002h-34.998c-18.91 0-34.247-15.519-34.247-34.634v-260.779c0-19.137 15.337-34.634 34.247-34.634s34.247 15.519 34.247 34.634v226.145h0.751c78.643 0 142.632 64.717 142.632 144.27v372.622c-0.046 46.444-37.387 84.196-83.308 84.196zM465.192 833.82h45.375c8.146 0 14.746-6.69 14.746-14.928v-157.514h-74.889v157.514c0 8.238 6.622 14.928 14.768 14.928zM322.788 603.671c-11.196 0-21.686-5.53-28.080-14.837-24.485-35.499-64.58-56.707-107.292-56.707-34.020 0-65.604 13.084-89.27 35.476h102.104c18.91 0 34.247 15.519 34.247 34.634v124.268c0 9.193-3.618 18-10.035 24.485-6.417 6.531-15.132 10.172-24.212 10.172h-102.127c23.666 22.414 55.25 35.476 89.27 35.476 42.712 0 82.83-21.185 107.292-56.707 6.417-9.284 16.885-14.837 28.080-14.837h59.142v-68.244c-24.599-8.465-44.032-28.262-52.247-53.225l-6.872 0.046zM574.783 516.335h-166.093c-8.146 0-14.768 6.69-14.768 14.928v45.898c0 8.238 6.622 14.928 14.768 14.928h166.093c20.639 0 37.456-16.998 37.456-37.888s-16.794-37.865-37.456-37.865zM593.829 659.604v159.289c0 8.238 6.622 14.928 14.768 14.928h45.375c8.146 0 14.768-6.69 14.768-14.928v-167.982c0-11.196-4.87-21.254-12.538-28.194-15.588 18.91-37.478 32.313-62.373 36.887zM774.667 613.046c-20.639 0-37.456 16.998-37.456 37.888v167.959c0 8.238 6.622 14.928 14.746 14.928h45.375c8.146 0 14.746-6.69 14.746-14.928v-167.982c0.046-20.89-16.771-37.865-37.41-37.865zM918.050 564.69c-20.639 0-37.456 16.998-37.456 37.888v167.982c0 8.238 6.622 14.928 14.746 14.928h45.375c8.146 0 14.746-6.69 14.746-14.928v-168.004c0.046-20.867-16.748-37.865-37.41-37.865z" />
<glyph unicode="&#xe908;" glyph-name="search-arrow" horiz-adv-x="2048" d="M1024 248l-400 332.238 53.363 67.763 346.638-287.838 346.638 287.838 53.363-67.763z" />
<glyph unicode="&#xe909;" glyph-name="dipersion" d="M1017.417 261.018c-10.181 28.789-31.013 51.917-58.661 65.097s-58.792 14.848-87.698 4.725c-3.189-1.126-6.276-2.384-9.304-3.76l-139.235 104.141c23.625 45.831 29.111 100.835 10.606 153.147-6.627 18.725-15.857 35.796-27.151 50.981l61.323 56.042c22.543-16.764 49.591-26.448 78.321-27.677 2.077-0.088 4.155-0.132 6.217-0.132 35.474 0 69.179 13.034 95.481 37.083 27.838 25.439 44.061 60.167 45.685 97.763s-11.557 73.567-37.098 101.303c-25.541 27.721-60.401 43.886-98.143 45.509-77.926 3.35-144.033-57.095-147.383-134.715-0.995-22.981 3.569-45.363 13.093-65.624l-68.155-62.288c-48.976 31.568-111.572 41.092-170.73 20.334-38.020-13.341-70.203-37.537-93.257-69.471l-162.816 77.678c0.468 11.030-1.156 22.162-4.944 32.885-16.121 45.597-66.487 69.632-112.274 53.57s-69.91-66.238-53.789-111.835v0c12.741-36.001 46.811-58.558 83.12-58.558 9.684 0 19.529 1.609 29.169 4.988 10.767 3.774 20.48 9.509 28.804 16.779l162.845-77.692c-10.547-37.903-9.289-78.043 4.111-115.917 3.584-10.123 7.973-19.807 13.049-29.038l-264.207-304.377c-17.54 5.5-36.937 5.603-55.559-0.936-22.177-7.782-39.995-23.698-50.147-44.822s-11.454-44.924-3.628-67.013v0c12.712-36.001 46.782-58.558 83.105-58.558 9.684 0 19.529 1.609 29.169 4.988 45.787 16.062 69.91 66.238 53.789 111.835-1.185 3.35-2.575 6.568-4.111 9.669l256 294.912c12.668-10.708 26.785-19.895 42.174-27.238 15.872-7.578 32.432-12.859 49.284-15.945l-8.821-69.998c-1.668-0.512-3.335-1.039-4.988-1.624-28.906-10.138-52.122-30.896-65.36-58.427s-14.921-58.558-4.74-87.347c10.181-28.789 31.013-51.917 58.661-65.097 15.711-7.49 32.563-11.264 49.474-11.264 12.844 0 25.732 2.18 38.21 6.554 28.906 10.138 52.122 30.896 65.36 58.427s14.921 58.558 4.74 87.347c-10.181 28.789-31.013 51.917-58.661 65.097-4.272 2.033-8.645 3.774-13.063 5.252l8.967 71.095c10.050 1.843 20.041 4.447 29.872 7.899 25.381 8.909 47.748 22.543 66.472 39.57l129.141-96.578c-15.974-27.838-20.231-62.171-8.719-94.72 10.181-28.789 31.013-51.917 58.661-65.097 15.711-7.49 32.563-11.264 49.474-11.264 12.844 0 25.732 2.18 38.21 6.554 28.906 10.138 52.122 30.896 65.36 58.427 13.21 27.546 14.877 58.573 4.696 87.362zM854.821 876.339c19.266-0.819 37.069-9.070 50.103-23.23 13.049-14.16 19.763-32.534 18.944-51.727-0.834-19.193-9.114-36.923-23.333-49.913s-32.651-19.734-51.931-18.871c-19.28 0.819-37.069 9.070-50.117 23.23s-19.763 32.534-18.944 51.727c1.712 39.643 35.504 70.524 75.279 68.784zM157.506 706.794c-2.165-4.506-5.968-7.914-10.708-9.582-9.772-3.423-20.539 1.697-23.991 11.44-1.668 4.725-1.39 9.801 0.775 14.321 2.165 4.506 5.968 7.914 10.708 9.582 9.787 3.423 20.539-1.697 23.991-11.44 1.668-4.725 1.39-9.801-0.775-14.321zM105.033 30.237c-2.165-4.52-5.968-7.914-10.708-9.582-9.787-3.423-20.539 1.697-23.991 11.44v0c-1.668 4.725-1.39 9.801 0.775 14.321 2.165 4.506 5.968 7.914 10.708 9.582 2.063 0.717 4.169 1.068 6.232 1.068 7.753 0 15.038-4.813 17.759-12.507 1.668-4.725 1.39-9.816-0.775-14.321zM581.691 164.528c4.037-11.425 3.379-23.728-1.887-34.64-5.252-10.928-14.453-19.149-25.922-23.172s-23.815-3.365-34.787 1.872c-10.957 5.237-19.222 14.395-23.259 25.819s-3.365 23.728 1.872 34.64c5.252 10.928 14.453 19.149 25.936 23.172 4.944 1.741 10.064 2.604 15.155 2.604 6.715 0 13.385-1.492 19.632-4.476 10.957-5.222 19.222-14.395 23.259-25.819zM591.097 401.832c-31.642-11.103-65.755-9.275-96.022 5.164s-53.072 39.746-64.234 71.285c0 0 0 0 0 0-11.147 31.525-9.304 65.492 5.193 95.642s39.907 52.868 71.563 63.971c13.765 4.827 27.809 7.124 41.633 7.124 51.814 0 100.454-32.197 118.623-83.573 23.011-65.083-11.425-136.689-76.756-159.612zM950.243 203.454c-5.252-10.928-14.453-19.149-25.922-23.172s-23.815-3.365-34.787 1.872c-10.957 5.237-19.222 14.395-23.259 25.819-8.338 23.581 4.14 49.518 27.809 57.827 11.469 4.023 23.815 3.35 34.787-1.872 10.957-5.237 19.222-14.395 23.259-25.819s3.365-23.728-1.887-34.655z" />
<glyph unicode="&#xe90a;" glyph-name="divulgar" d="M621.645 385.229c110.387 44.774 184.755 153.805 184.755 276.685 0 164.378-132.070 298.086-294.4 298.086s-294.4-133.709-294.4-298.086c0-122.88 74.368-231.91 184.755-276.685l-132.864-403.661c-5.965-18.15 3.738-37.76 21.658-43.802 3.584-1.203 7.219-1.766 10.803-1.766 14.336 0 27.699 9.19 32.461 23.706l44.723 135.834h265.728l44.723-135.834c4.762-14.515 18.125-23.706 32.461-23.706 3.584 0 7.219 0.563 10.829 1.792 17.946 6.042 27.622 25.651 21.658 43.802l-132.89 403.635zM512 643.379c-10.086 0-18.278 8.32-18.278 18.56s8.192 18.56 18.278 18.56c10.086 0 18.278-8.32 18.278-18.56s-8.192-18.56-18.278-18.56zM555.546 586.035c25.805 15.232 43.187 43.546 43.187 75.878 0 48.41-38.912 87.808-86.733 87.808s-86.733-39.398-86.733-87.808c0-32.358 17.382-60.646 43.187-75.878l-11.75-35.686c-40.704 20.864-68.019 63.872-68.019 111.565 0 68.864 55.322 124.902 123.315 124.902s123.315-56.038 123.315-124.902c0-47.693-27.315-90.726-68.019-111.565l-11.75 35.686zM512 499.149l40.038-121.651h-80.077l40.038 121.651zM286.054 661.914c0 126.182 101.35 228.838 225.946 228.838s225.946-102.656 225.946-228.838c0-92.928-55.398-175.488-137.984-210.79l-10.906 33.101c68.198 30.541 114.714 100.122 114.714 177.69 0 107.059-86.016 194.15-191.77 194.15s-191.77-87.091-191.77-194.15c0-77.568 46.515-147.174 114.714-177.69l-10.906-33.101c-82.586 35.302-137.984 117.862-137.984 210.79zM401.946 164.787l47.206 143.437h125.696l47.206-143.437h-220.109z" />
<glyph unicode="&#xe90b;" glyph-name="existencia" d="M989.637 752.157h-71.782v74.811c0 17.13-12.449 31.671-29.272 34.216-2.94 0.439-72.865 10.664-157.067-4.754-93.872-17.203-168.741-59.611-219.516-123.714-50.776 64.102-125.645 106.511-219.516 123.714-84.202 15.419-154.141 5.193-157.067 4.754-16.823-2.531-29.272-17.086-29.272-34.216v-74.811h-71.782c-18.973 0.015-34.363-15.477-34.363-34.582v-651.893c0-11.205 5.383-21.709 14.453-28.204s20.699-8.163 31.203-4.476c2.575 0.892 260.067 89.366 452.081 1.2 9.055-4.169 19.456-4.169 28.526 0 191.473 87.918 449.507-0.307 452.081-1.2 3.672-1.287 7.49-1.916 11.293-1.916 7.051 0 14.014 2.18 19.909 6.393 9.070 6.495 14.453 16.998 14.453 28.204v651.878c0 19.105-15.389 34.597-34.363 34.597zM68.725 111.967v571.012h37.42v-460.698c0-10.050 4.374-19.602 11.922-26.171s17.598-9.523 27.472-8.046c1.902 0.278 151.172 20.904 260.228-54.418-134.334 23.113-268.8-3.643-337.042-21.68zM477.637 164.835c-48.040 43.696-110.607 73.245-185.154 86.894-35.884 6.568-69.164 8.485-95.773 8.485-7.899 0-15.214-0.176-21.84-0.439v535.435c66.048 2.999 226.699-4.111 302.768-133.939v-496.435zM546.363 661.255c75.805 129.273 236.705 136.704 302.768 133.851v-535.333c-28.906 1.17-71.095 0.468-117.614-8.046-74.547-13.648-137.114-43.198-185.154-86.894v496.421zM618.116 133.617c109.071 75.381 258.428 54.725 260.286 54.448 9.904-1.492 19.939 1.434 27.516 8.002s11.937 16.135 11.937 26.214v460.698h37.42v-570.997c-68.272 18.037-202.781 44.793-337.159 21.636z" />
<glyph unicode="&#xe90c;" glyph-name="intercambio" d="M379.483 272.84c-27.325 27.872-63.839 46.515-105.57 54.468 58.957 19.68 101.572 75.215 101.572 140.512 0 81.696-66.7 148.171-148.676 148.171s-148.648-66.476-148.648-148.171c0-65.298 42.615-120.832 101.572-140.512-41.717-7.954-78.245-26.582-105.556-54.454-36.092-36.822-54.44-87.643-53.052-146.979 0.435-18.713 15.781-33.652 34.564-33.652h342.283c18.783 0 34.129 14.939 34.564 33.652 1.389 59.336-16.959 110.157-53.052 146.965zM147.302 467.821c0 43.695 35.672 79.255 79.521 79.255s79.521-35.545 79.521-79.255c0-43.709-35.672-79.255-79.521-79.255s-79.521 35.545-79.521 79.255zM92.497 161.126c4.334 25.558 14.743 46.852 31.127 63.558 24.085 24.562 60.739 38.098 103.2 38.098s79.115-13.536 103.2-38.098c16.37-16.707 26.778-38 31.113-63.558h-268.639zM949.851 479.59c-27.325 27.872-63.839 46.501-105.57 54.468 58.957 19.68 101.572 75.201 101.572 140.512 0 81.696-66.7 148.171-148.676 148.171s-148.676-66.476-148.676-148.171c0-65.298 42.615-120.832 101.572-140.512-41.717-7.954-78.245-26.596-105.556-54.468-36.092-36.822-54.44-87.643-53.052-146.979 0.435-18.713 15.781-33.652 34.564-33.652h342.283c18.783 0 34.129 14.953 34.564 33.652 1.403 59.35-16.945 110.171-53.024 146.979zM717.656 674.571c0 43.695 35.672 79.255 79.521 79.255s79.521-35.545 79.521-79.255c0-43.709-35.672-79.255-79.521-79.255s-79.521 35.545-79.521 79.255zM662.865 367.89c4.334 25.558 14.743 46.852 31.113 63.558 24.085 24.576 60.739 38.098 103.2 38.098s79.115-13.522 103.2-38.098c16.37-16.707 26.778-38 31.127-63.544h-268.639zM165.958 648.746c6.074-4.278 13.045-6.34 19.961-6.34 10.829 0 21.504 5.064 28.251 14.546 65.326 91.936 169.83 148.452 281.979 153.348l-21.266-21.195c-13.494-13.452-13.494-35.279 0-48.731 6.747-6.733 15.598-10.1 24.45-10.1s17.689 3.367 24.45 10.1l80.686 80.405c13.494 13.452 13.494 35.279 0 48.731l-80.686 80.405c-13.508 13.452-35.391 13.452-48.9 0-13.494-13.452-13.494-35.279 0-48.731l21.953-21.883c-134.831-4.727-260.713-72.185-339.112-182.524-11.040-15.528-7.35-37.032 8.234-48.030zM859.473 247.969c-15.669 10.885-37.215 7.056-48.142-8.543-62.773-89.677-162.381-146.095-270.574-154.652l22.205 22.121c13.508 13.452 13.508 35.279 0 48.731s-35.391 13.452-48.9 0l-80.672-80.405c-13.494-13.452-13.494-35.279 0-48.731l80.672-80.405c6.747-6.719 15.598-10.086 24.45-10.086s17.689 3.367 24.45 10.1c13.508 13.452 13.508 35.265 0 48.731l-20.999 20.929c130.343 9.006 250.613 76.421 326.081 184.236 10.927 15.612 7.084 37.088-8.571 47.974z" />
<glyph unicode="&#xe90d;" glyph-name="left-arrow" d="M262.244 447.975l414.895 512.025 84.617-68.283-359.499-443.742 359.499-443.692-84.617-68.283z" />
<glyph unicode="&#xe90e;" glyph-name="right-arrow" d="M761.756 448.025l-414.895-512.025-84.617 68.283 359.499 443.742-359.499 443.692 84.617 68.283z" />
<glyph unicode="&#xe90f;" glyph-name="visibilidad" d="M560.128 880.23c-178.125 0-323.072-144.563-323.072-322.253s144.922-322.253 323.072-322.253 323.072 144.538 323.072 322.227-144.922 322.278-323.072 322.278zM449.946 396.57c-9.728-16.026-20.070-33.152-26.394-51.302-70.17 44.979-116.787 123.494-116.787 212.71 0 9.037 0.512 17.971 1.434 26.778 63.693-11.187 157.363-39.68 170.368-85.376 10.778-37.811-8.371-69.376-28.621-102.81zM560.128 305.229c-25.216 0-49.536 3.738-72.525 10.598 1.741 11.366 12.006 28.288 21.99 44.774 23.245 38.349 55.066 90.88 36.045 157.722-24.96 87.629-153.011 121.933-220.442 134.067 23.962 59.11 69.683 107.187 127.258 134.272-6.963-40.32-3.866-92.288 39.731-133.043 32.64-30.515 67.917-43.853 96.256-54.579 35.149-13.286 52.48-20.736 62.694-44.8l2.662-6.298c25.216-59.597 53.069-125.414 93.85-159.77-46.387-50.918-113.254-82.944-187.52-82.944zM787.174 445.952c-25.626 26.214-52.096 88.704-69.146 129.050l-2.688 6.323c-22.272 52.557-64.742 68.608-102.195 82.765-26.086 9.856-50.714 19.174-73.293 40.269-33.792 31.59-17.254 83.968-8.781 104.653 9.549 1.101 19.226 1.715 29.056 1.715 139.699 0 253.363-113.382 253.363-252.749 0-40.218-9.498-78.259-26.317-112.026zM742.118 5.53h-27.776l-47.181 148.224c4.352 1.152 8.678 2.33 13.005 3.635 18.432 5.504 28.928 24.858 23.398 43.264-5.504 18.406-24.934 28.851-43.366 23.347-89.421-26.65-183.91-16.998-266.061 27.238-82.125 44.237-142.080 117.709-168.806 206.925s-17.024 183.424 27.315 265.37 117.99 141.747 207.437 168.397c18.432 5.504 28.928 24.858 23.398 43.264-5.504 18.406-24.934 28.826-43.366 23.347-107.264-31.974-195.635-103.706-248.806-201.984s-64.819-211.328-32.742-318.31c32.051-107.008 103.962-195.149 202.496-248.192 34.893-18.79 71.654-32.384 109.363-40.678l-47.309-143.846h-25.984c-19.251 0-34.842-15.565-34.842-34.765s15.565-34.765 34.816-34.765h345.011c19.251 0 34.842 15.565 34.842 34.765s-15.59 34.765-34.842 34.765zM496.435 5.53l44.288 134.63c6.272-0.282 12.57-0.486 18.842-0.486 12.774 0 25.574 0.666 38.349 1.843l43.29-135.987h-144.768z" />
<glyph unicode="&#xe910;" glyph-name="mail" d="M1023.232 566.733c0 1.587-0.358 3.942-0.922 5.274-1.587 5.786-5.069 11.11-10.291 14.797l-146.586 103.629v111.104c0 14.746-11.725 26.675-26.214 26.675h-168.653l-143.462 101.427c-9.062 6.349-20.941 6.349-29.952 0.051l-144.384-101.478h-167.936c-14.49 0-26.214-11.93-26.214-26.675v-109.773l-147.302-103.526c-7.219-5.069-11.162-13.21-11.264-21.555 0-0.154-0.051-0.307-0.051-0.461l0.768-577.997c0-7.066 2.765-13.824 7.68-18.842 4.966-4.966 11.622-7.782 18.534-7.782h0.051l970.752 1.331c14.49 0 26.214 11.981 26.163 26.675l-0.717 577.126zM865.382 625.51l83.814-59.238-83.814-59.238v118.477zM512.051 875.264l66.611-47.104h-133.632l67.021 47.104zM211.098 774.861h601.856v-304.896l-202.086-142.848-82.381 64.973c-0.102 0.102-0.256 0.154-0.358 0.256-9.216 7.014-22.221 7.27-31.795-0.256l-82.995-65.434-202.24 142.131v306.074zM158.618 626.944v-121.293l-86.272 60.672 86.272 60.621zM52.531 515.379l317.338-222.976-316.723-249.754-0.614 472.73zM103.731 15.053l408.627 322.304 407.194-321.126-815.821-1.178zM654.285 292.915l316.57 223.744 0.614-473.958-317.184 250.214zM689.562 668.211h-355.072c-14.49 0-26.266-11.93-26.266-26.675s11.776-26.675 26.266-26.675h355.072c14.49 0 26.214 11.93 26.214 26.675s-11.776 26.675-26.214 26.675zM689.562 529.562h-355.072c-14.49 0-26.266-11.93-26.266-26.675s11.776-26.675 26.266-26.675h355.072c14.49 0 26.214 11.93 26.214 26.675s-11.776 26.675-26.214 26.675z" />
<glyph unicode="&#xe912;" glyph-name="map" horiz-adv-x="755" d="M377.29 960c-208.249 0-377.29-168.691-377.29-376.374 0-86.771 31.636-164.352 78.147-229.511 299.143-418.115 299.143-418.115 299.143-418.115s0 0 299.17 418.169c46.484 65.159 78.067 142.929 78.067 229.484 0 207.656-168.798 376.347-377.236 376.347zM377.263 428.059c-95.070 0-172.113 76.908-172.113 171.763s77.043 171.736 172.113 171.736 172.14-76.908 172.14-171.763-77.069-171.736-172.14-171.736z" />
<glyph unicode="&#xe914;" glyph-name="ubicacion" d="M512 960c-225.843 0-409.6-178.176-409.6-397.21 0-146.995 66.918-300.954 193.485-445.184 94.054-107.162 187.29-171.315 191.232-173.978 7.424-5.069 16.179-7.629 24.883-7.629s17.459 2.56 24.934 7.629c3.942 2.662 97.126 66.816 191.232 173.978 126.515 144.282 193.434 298.189 193.434 445.184 0 219.034-183.757 397.21-409.6 397.21zM511.949 30.822c-79.718 61.85-323.021 271.923-323.021 531.968 0.051 172.749 144.947 313.242 323.072 313.242s323.021-140.544 323.021-313.242c0-259.43-243.405-470.016-323.072-531.968zM512 760.73c-112.538 0-204.083-88.781-204.083-197.939s91.546-197.939 204.083-197.939c112.538 0 204.083 88.781 204.083 197.939s-91.546 197.939-204.083 197.939zM512 448.819c-64.819 0-117.555 51.149-117.555 113.971s52.736 113.971 117.555 113.971 117.555-51.149 117.555-113.971-52.736-113.971-117.555-113.971z" />
<glyph unicode="&#xe915;" glyph-name="search" d="M1004.544 59.264l-269.312 269.312c49.28 68.8 76.224 151.36 76.224 235.456 0 223.68-182.016 405.696-405.76 405.696-223.68 0-405.696-182.016-405.696-405.696 0-223.744 182.016-405.76 405.696-405.76 86.272 0 167.168 26.176 235.648 75.968l269.12-269.056c12.544-12.544 29.248-19.52 47.040-19.52s34.56 6.976 47.168 19.584c25.856 25.984 25.792 68.16-0.128 94.016zM405.696 836.672c150.336 0 272.704-122.304 272.704-272.64s-122.304-272.704-272.704-272.704c-150.336 0-272.64 122.304-272.64 272.704 0 150.336 122.304 272.64 272.64 272.64z" />
<glyph unicode="&#xe916;" glyph-name="comparte" d="M0 543.061c0-73.33 54.585-134.030 124.985-143.189v-165.831c0-18.261 9.33-34.674 24.974-43.918 7.993-4.722 16.811-7.083 25.657-7.083 8.505 0 17.038 2.19 24.832 6.599 141.568 79.673 294.656 128.484 455.623 145.323l-98.788-274.261c-5.575-15.445-3.328-32.74 6.059-46.222s24.747-21.532 41.102-21.532h115.371c21.020 0 39.964 13.369 47.161 33.252l114.972 319.374c24.491 10.894 42.325 34.219 45.568 62.009h32.313c35.356 0 64.142 28.956 64.142 64.569v141.852c0 35.612-28.786 64.569-64.142 64.569h-32.313c-4.523 38.599-37.205 68.636-76.743 68.636 0 0-157.412 0.683-158.748 0.796-174.108 12.942-339.513 62.919-491.577 148.508-15.929 8.96-34.816 8.761-50.489-0.484-15.644-9.244-24.974-25.657-24.974-43.918v-165.831c-70.4-9.188-124.985-69.888-124.985-143.218zM928.085 628.736h31.744c8.107 0 14.677-6.628 14.677-14.763v-141.852c0-8.135-6.571-14.763-14.677-14.763h-31.744v171.378zM852.565 388.779c-0.597-0.028-136.42-0.085-136.42-0.085v308.651h134.656c15.332 0 27.819-12.544 27.819-27.989v0-252.672c0-11.378-6.77-21.163-16.498-25.543-3.556-1.536-4.58-1.792-9.557-2.361zM710.144 338.887h116.821l-106.468-295.765c-0.085-0.256-0.37-0.427-0.654-0.427h-115.371c-0.199 0-0.37 0-0.569 0.313-0.228 0.313-0.171 0.455-0.085 0.654l106.325 295.225zM174.45 852.11c0 0.37 0 0.654 0.54 0.967 0.626 0.37 1.024 0.171 1.337 0 152.036-85.589 316.928-136.988 490.354-152.946v-314.14c-173.426-15.929-338.29-67.328-490.354-152.917-0.313-0.171-0.683-0.37-1.308 0-0.54 0.313-0.54 0.597-0.54 0.967v618.069zM49.465 543.061c0 45.796 32.512 84.11 75.492 92.786v-185.572c-42.98 8.676-75.492 46.99-75.492 92.786z" />
<glyph unicode="&#xe917;" glyph-name="document" d="M990.789 682.883l-261.895 271.083c-3.709 3.847-8.856 6.033-14.225 6.033h-390.31c-43.7 0-79.235-35.397-79.235-78.876v-275.567h-158.166c-32.685-0.028-59.281-26.486-59.281-59.032v-295.493c0-32.547 26.596-59.032 59.281-59.032h158.194v-177.263c-0.028-43.423 35.508-78.737 79.208-78.737h592.758c43.672 0 79.208 35.314 79.208 78.71v654.53c0 5.092-1.993 9.963-5.535 13.644zM719.568 906.835l214.985-222.54h-214.985v222.54zM86.957 231.382c-10.877 0-19.733 8.801-19.733 19.65v295.493c0 10.821 8.856 19.65 19.733 19.65h533.808c10.877 0 19.733-8.801 19.733-19.65v-295.493c0-10.821-8.856-19.65-19.733-19.65h-533.808zM956.776 14.71c0-21.67-17.795-39.327-39.687-39.327h-592.73c-21.891 0-39.687 17.657-39.687 39.355v177.263h336.093c32.685 0 59.281 26.486 59.281 59.032v295.493c0 32.547-26.596 59.032-59.281 59.032h-336.093v275.567c0 21.781 17.795 39.493 39.687 39.493h355.688v-256c0-10.877 8.856-19.705 19.76-19.705h256.996l-0.028-630.203zM263.998 460.205c-6.559 8.496-14.723 14.032-24.438 16.55-6.338 1.688-19.926 2.546-40.766 2.546h-55.019v-169.154h34.29v63.82h22.362c15.526 0 27.371 0.803 35.563 2.435 6.033 1.301 11.956 3.985 17.768 8.026 5.84 4.041 10.627 9.603 14.419 16.661 3.792 7.085 5.674 15.803 5.674 26.181 0 13.45-3.266 24.438-9.853 32.934zM234.634 413.654c-2.574-3.764-6.144-6.531-10.71-8.303s-13.589-2.657-27.094-2.657h-18.764v47.99h16.55c12.343 0 20.591-0.387 24.659-1.162 5.563-0.996 10.157-3.487 13.782-7.5s5.452-9.078 5.452-15.222c0.028-4.982-1.273-9.382-3.875-13.146zM438.687 433.083c-3.709 10.821-9.105 19.954-16.218 27.399s-15.637 12.648-25.6 15.581c-7.417 2.159-18.183 3.238-32.325 3.238h-62.658v-169.154h64.512c12.675 0 22.777 1.19 30.36 3.57 10.129 3.238 18.155 7.722 24.106 13.506 7.888 7.611 13.949 17.574 18.183 29.89 3.487 10.074 5.203 22.085 5.203 36.006 0 15.83-1.854 29.17-5.563 39.964zM405.31 363.645c-2.325-7.583-5.314-13.008-8.967-16.329-3.681-3.321-8.275-5.646-13.838-7.030-4.234-1.079-11.153-1.605-20.729-1.605h-25.6v112.031h15.415c13.976 0 23.358-0.526 28.146-1.605 6.421-1.384 11.707-4.041 15.858-7.971 4.179-3.93 7.417-9.382 9.742-16.384s3.487-17.048 3.487-30.111c-0.028-13.091-1.19-23.441-3.515-30.997zM589.962 450.685v28.617h-116.432v-169.154h34.29v71.901h70.905v28.617h-70.905v40.019z" />
<glyph unicode="&#xe918;" glyph-name="explora" d="M915.213 851.294c-144.842 144.842-380.497 144.842-525.312 0-70.171-70.171-108.787-163.436-108.787-262.656 0-90.381 32.067-175.832 90.813-243.389l-44.248-44.248-45.083 45.083c-4.931 4.931-11.641 7.707-18.621 7.707s-13.689-2.776-18.621-7.707l-211.24-211.213c-21.989-21.989-34.115-51.227-34.115-82.324s12.126-60.335 34.115-82.351c21.989-21.989 51.227-34.115 82.351-34.115s60.335 12.126 82.351 34.115l211.213 211.213c4.931 4.931 7.707 11.641 7.707 18.621s-2.776 13.689-7.707 18.621l-45.083 45.083 44.248 44.248c69.578-60.443 156.456-90.651 243.362-90.651 95.124 0 190.248 36.217 262.656 108.625 70.144 70.171 108.787 163.436 108.787 262.656 0 99.247-38.643 192.512-108.787 262.683zM161.523 7.437c-12.045-12.045-28.052-18.675-45.083-18.675s-33.037 6.629-45.083 18.675c-12.045 12.045-18.675 28.052-18.675 45.083s6.629 33.037 18.675 45.083l117.868 117.868 90.166-90.166-117.868-117.868zM316.659 162.573l-90.166 90.166 37.457 37.457 90.166-90.166-37.457-37.457zM877.945 363.224c-124.281-124.281-326.521-124.281-450.803 0-60.2 60.2-93.373 140.261-93.373 225.415s33.145 165.187 93.373 225.415c62.141 62.141 143.764 93.211 225.415 93.211 81.624 0 163.247-31.070 225.415-93.211 60.2-60.2 93.373-140.261 93.373-225.415s-33.199-165.214-93.4-225.415zM834.479 770.56c-100.325 100.325-263.545 100.325-363.843 0-100.325-100.325-100.325-263.545 0-363.843 50.149-50.149 116.035-75.237 181.922-75.237s131.773 25.088 181.922 75.237v0c100.298 100.298 100.298 263.518 0 363.843zM797.211 443.958c-79.764-79.764-209.57-79.764-289.334 0s-79.764 209.57 0 289.334c39.882 39.882 92.268 59.823 144.68 59.823 52.386 0 104.798-19.941 144.68-59.823 79.737-79.764 79.737-209.57-0.027-289.334zM750.646 686.727c-54.083 54.083-142.093 54.083-196.204 0-10.294-10.294-10.294-26.974 0-37.268s26.974-10.294 37.268 0c33.549 33.549 88.145 33.549 121.694 0 5.147-5.147 11.884-7.707 18.621-7.707s13.474 2.56 18.621 7.707c10.294 10.294 10.294 26.974 0 37.268z" />
<glyph unicode="&#xe919;" glyph-name="grid" d="M0 550.514h409.486v409.486h-409.486v-409.486zM0-64h409.486v409.486h-409.486v-409.486zM614.514-64h409.486v409.486h-409.486v-409.486zM614.514 550.514h409.486v409.486h-409.486v-409.486z" />
<glyph unicode="&#xe91a;" glyph-name="list" d="M0 374.19h146.801v147.62h-146.801v-147.62zM0 79.36h146.801v147.661h-146.801v-147.661zM0 668.979h146.801v147.661h-146.801v-147.661zM293.151 374.19h730.849v147.62h-730.849v-147.62zM293.151 79.36h730.849v147.661h-730.849v-147.661zM293.151 816.64v-147.661h730.849v147.661h-730.849z" />
<glyph unicode="&#xe91d;" glyph-name="search-map" d="M309.365 506.602h64.015v-114.044h-64.015v114.044zM309.365 709.53h64.015v-114.044h-64.015v114.044zM653.195-45.627v-0.761h1.229l28.233-17.613 29.345 17.613h5.179v3.101l306.82 184.203v819.083l-185.666-120.013c-40.58 36.659-94.179 59.158-153.161 59.158-60.094 0-114.6-23.347-155.443-61.235l-156.379 100.82v3.218h-4.974l-27.999 18.052-340.378-173.407v-850.593l341.343 212.787 311.852-194.414zM685.202 835.16c90.873 0 164.805-73.933 164.805-164.805 0-14.98-2.019-29.813-5.968-44.091-1.521-5.5-3.335-10.942-5.442-16.238l-4.74-10.767-148.685-274.783-148.421 274.256-5.354 12.171c-1.931 4.974-3.628 10.123-5.091 15.389-3.95 14.307-5.968 29.14-5.968 44.091 0.029 90.843 73.962 164.776 164.864 164.776zM63.985 51.302v696.057l245.38 125.016v-73.991h64.015v64.19l115.8-74.664c-20.685-34.406-32.797-74.547-32.797-117.614 0-21.182 2.896-41.691 8.28-61.177 2.165-7.812 4.71-15.448 7.636-22.879l6.934-15.77 205.97-380.518 206.204 381.104 6.261 14.219c3.101 7.753 5.793 15.74 8.075 23.903 5.383 19.485 8.28 39.995 8.28 61.177 0 44.12-12.698 85.197-34.348 120.13l80.34 51.931v-665.278l-242.805-145.759v69.72h-64.015v-71.3l-279.815 174.431v99.445h-64.015v-99.416l-1.902-1.17-243.478-151.786zM685.202 571.173c55.91 0 101.23 45.319 101.23 101.23s-45.319 101.23-101.23 101.23c-55.91 0-101.23-45.319-101.23-101.23s45.29-101.23 101.23-101.23zM685.202 709.647c20.539 0 37.244-16.706 37.244-37.244s-16.706-37.244-37.244-37.244c-20.539 0-37.244 16.706-37.244 37.244s16.706 37.244 37.244 37.244z" />
</font>
</defs>
</svg>
